<svg id="visual" viewBox="0 0 900 600" width="900" height="600" xmlns="http://www.w3.org/2000/svg" xmlns:xlink="http://www.w3.org/1999/xlink" version="1.1"><path d="M0 163L30 169C60 175 120 187 180 207C240 227 300 255 360 240C420 225 480 167 540 151C600 135 660 161 720 175C780 189 840 191 870 192L900 193L900 0L870 0C840 0 780 0 720 0C660 0 600 0 540 0C480 0 420 0 360 0C300 0 240 0 180 0C120 0 60 0 30 0L0 0Z" fill="#6198ff"></path><path d="M0 253L30 255C60 257 120 261 180 273C240 285 300 305 360 292C420 279 480 233 540 221C600 209 660 231 720 248C780 265 840 277 870 283L900 289L900 191L870 190C840 189 780 187 720 173C660 159 600 133 540 149C480 165 420 223 360 238C300 253 240 225 180 205C120 185 60 173 30 167L0 161Z" fill="#3c80ff"></path><path d="M0 301L30 302C60 303 120 305 180 320C240 335 300 363 360 357C420 351 480 311 540 298C600 285 660 299 720 316C780 333 840 353 870 363L900 373L900 287L870 281C840 275 780 263 720 246C660 229 600 207 540 219C480 231 420 277 360 290C300 303 240 283 180 271C120 259 60 255 30 253L0 251Z" fill="#0066ff"></path><path d="M0 439L30 438C60 437 120 435 180 443C240 451 300 469 360 456C420 443 480 399 540 397C600 395 660 435 720 461C780 487 840 499 870 505L900 511L900 371L870 361C840 351 780 331 720 314C660 297 600 283 540 296C480 309 420 349 360 355C300 361 240 333 180 318C120 303 60 301 30 300L0 299Z" fill="#0059dd"></path><path d="M0 601L30 601C60 601 120 601 180 601C240 601 300 601 360 601C420 601 480 601 540 601C600 601 660 601 720 601C780 601 840 601 870 601L900 601L900 509L870 503C840 497 780 485 720 459C660 433 600 393 540 395C480 397 420 441 360 454C300 467 240 449 180 441C120 433 60 435 30 436L0 437Z" fill="#004cbb"></path></svg>